<svg id="svg2" xmlns="http://www.w3.org/2000/svg" viewBox="0 0 500 360"><defs><style>.cls-1{fill:#fff;fill-rule:evenodd;}</style></defs><title>logo-wikilegis</title><g id="g10"><g id="g12"><path id="path14" class="cls-1" d="M254.47,183.76A12.8,12.8,0,0,1,267,194.09l23.11,9.68-12.62-57A11.39,11.39,0,0,1,273,145.1L247.66,170v.92q2.47,6.5,5.05,12.94a12.69,12.69,0,0,1,1.76-.12Zm34-41.62,36.82,68.6a10.94,10.94,0,0,1,1.15-.05c.29,0,.57,0,.86,0L334.54,187a13.55,13.55,0,0,1-2.9-22.71L277.74,56.61c-.27.09-.56.17-.84.24l5,67.46a11.46,11.46,0,0,1,6.58,17.83Zm51,19.09c.24,0,.5,0,.75,0a13,13,0,0,1,1.4.07L383.18,51.91a11.45,11.45,0,1,1,18.34-11.62h77.75a10.72,10.72,0,1,1,10,14.56c-.25,0-.49,0-.73,0l-54.87,161a10.63,10.63,0,1,1-5.2,15.15L388.55,337a10,10,0,1,1-16,11.33h-33.7a15,15,0,1,1-24.42-14.65c-19.65-41.51-38.77-83.08-58.72-124.38a10.36,10.36,0,0,1-1.25.06,12.8,12.8,0,0,1-9.27-21.63l-1.73-3.51L170.63,343.11a11,11,0,0,1-4.63,4.83,12.69,12.69,0,0,1-6.55,2.12h-44a11.92,11.92,0,0,1-6.56-2.32,11.43,11.43,0,0,1-4.63-5.4L.9,58.14C-.65,53.77-.2,50,2.25,47a12.29,12.29,0,0,1,10.22-4.64h81a12.8,12.8,0,0,1,6.75,2.32,11.25,11.25,0,0,1,4.82,5.4l45.14,127.81L212.58,49.47a7.12,7.12,0,0,1-1.23.11,6.91,6.91,0,1,1,6.9-6.91,8,8,0,0,1-.12,1.3,11.92,11.92,0,0,1,5.74-1.66c12.35,0,21.47-.17,35.5-.34,1.25-6.61,6.59-13.2,14-13.2A14.56,14.56,0,0,1,287.62,43a14.19,14.19,0,0,1-2.52,8.1l54.4,110.1Zm9.21,3a15.93,15.93,0,0,1,1.22,1.1l76.39-51.75a11.49,11.49,0,0,1-.83-4.28,11.36,11.36,0,0,1,2.77-7.46l-33-48.37a11.51,11.51,0,0,1-4.84,1.07h-.52l-41.18,109.7ZM401.54,45.71a11.31,11.31,0,0,1-2.49,4.84L432,98.9a11.39,11.39,0,0,1,11.32.87l37.58-48.91a10.71,10.71,0,0,1-2.33-5.74l-77.07.59Zm81.7,9.95-36.56,47.58a11.46,11.46,0,0,1-7,17.14l-7.25,84.47L483.24,55.66ZM419.33,241.79l-36.59,43.52a12.79,12.79,0,1,1-20-1.27l-32.29-49.88a12.08,12.08,0,0,1-16.08-11.4c0-.23,0-.47,0-.7l-13.87-5.2,25,113.22a15,15,0,0,1,13.59,13.37h32.58a10,10,0,0,1,10-9.17,10.18,10.18,0,0,1,2.67.36l35-92.85ZM317.11,324.46l-24.3-108.14-28.33-11.77a13.19,13.19,0,0,1-2.3,2.24C279.19,246.56,298.48,285.38,317.11,324.46ZM426,223.57l-.52,1.52-72.84-45a13.64,13.64,0,0,0,1.11-5.39,13.39,13.39,0,0,0-1.17-5.52L429,117.48a11.46,11.46,0,0,0,5.88,3ZM274.1,0a5.93,5.93,0,1,1-5.92,5.92A5.93,5.93,0,0,1,274.1,0ZM239.7,80a8.5,8.5,0,1,0,8.49,8.49A8.49,8.49,0,0,0,239.7,80ZM350,184.09a13.46,13.46,0,0,1-9.78,4.18c-.37,0-.75,0-1.12,0L331.87,212a12.08,12.08,0,0,1,2.66,19.75l32,49.43a12.77,12.77,0,0,1,12.82.81l44.16-52.53L350,184.09ZM299.3,211.33l16.31,6.11a12,12,0,0,1,3.19-4l-32.19-59.19Zm-41.2,56.4a7.43,7.43,0,1,1-7.41,7.42A7.43,7.43,0,0,1,258.1,267.73ZM321.35,40.11a8,8,0,1,1-8,8A8,8,0,0,1,321.35,40.11ZM484.19,145.43a6,6,0,1,1-6,6,6,6,0,0,1,6-6" transform="translate(0 0)"/></g></g></svg>